<?xml version="1.0" encoding="UTF-8"?>
<svg id="Lager_1" data-name="Lager 1" xmlns="http://www.w3.org/2000/svg" version="1.1" viewBox="0 0 242.71 159.84">
  <defs>
    <style>
      .cls-1, .cls-2 {
        fill: #0d0802;
        stroke-width: 0px;
      }

      .cls-2 {
        fill-rule: evenodd;
      }
    </style>
  </defs>
  <g>
    <path class="cls-1" d="M22.25,30.7h15.21v16.05h13.91v-16.05h15.21v45.49h-15.21v-16.31h-13.91v16.31h-15.21V30.7Z"/>
    <path class="cls-1" d="M89.4,30.37h15.08l19.17,45.82h-16.51l-2.4-6.11h-15.92l-2.34,6.11h-16.25l19.17-45.82ZM100.96,59.29l-4.16-11.05-4.16,11.05h8.32Z"/>
    <path class="cls-1" d="M127.3,30.7h15.21v32.49h21.38v13h-36.59V30.7Z"/>
    <path class="cls-1" d="M168.19,30.7h15.86l9.75,15.99,9.75-15.99h15.86v45.49h-15.14v-22.55l-10.5,16.18h-.26l-10.5-16.18v22.55h-14.82V30.7Z"/>
  </g>
  <g>
    <path class="cls-1" d="M27.03,129.47c-4.64,0-8.96-.64-12.96-1.92-4.01-1.28-7.46-3.19-10.37-5.75l8.12-9.68c2.47,1.91,5.07,3.27,7.8,4.09,2.73.82,5.44,1.23,8.12,1.23,1.39,0,2.38-.17,2.99-.52.61-.35.91-.82.91-1.43v-.13c0-.65-.44-1.19-1.33-1.62-.89-.43-2.55-.89-4.97-1.36-2.56-.52-4.99-1.13-7.31-1.82-2.32-.69-4.35-1.58-6.11-2.66-1.75-1.08-3.15-2.44-4.19-4.06-1.04-1.62-1.56-3.65-1.56-6.08v-.13c0-2.17.42-4.18,1.27-6.04.84-1.86,2.08-3.49,3.7-4.87,1.62-1.39,3.64-2.47,6.04-3.25,2.4-.78,5.17-1.17,8.29-1.17,4.42,0,8.29.52,11.6,1.56,3.31,1.04,6.29,2.6,8.94,4.68l-7.41,10.27c-2.17-1.56-4.45-2.7-6.86-3.41-2.4-.71-4.67-1.07-6.79-1.07-1.13,0-1.96.17-2.5.52-.54.35-.81.8-.81,1.36v.13c0,.3.09.58.26.84.17.26.49.51.94.75.45.24,1.07.47,1.85.68.78.22,1.78.43,2.99.65,2.9.52,5.55,1.15,7.93,1.88,2.38.74,4.43,1.68,6.14,2.83,1.71,1.15,3.03,2.52,3.96,4.13.93,1.6,1.4,3.55,1.4,5.85v.13c0,2.38-.48,4.53-1.43,6.43-.95,1.91-2.3,3.52-4.03,4.84-1.73,1.32-3.85,2.34-6.34,3.05-2.49.71-5.25,1.07-8.29,1.07Z"/>
    <path class="cls-1" d="M63.45,96h-13.39v-12.87h41.98v12.87h-13.39v32.62h-15.21v-32.62Z"/>
    <path class="cls-1" d="M106.97,82.81h15.08l19.17,45.82h-16.51l-2.4-6.11h-15.92l-2.34,6.11h-16.25l19.17-45.82ZM118.54,111.72l-4.16-11.05-4.16,11.05h8.32Z"/>
    <path class="cls-1" d="M144.87,83.13h17.42c4.51,0,8.46.53,11.86,1.59,3.4,1.06,6.23,2.57,8.48,4.52,2.25,1.95,3.94,4.3,5.07,7.05,1.13,2.75,1.69,5.82,1.69,9.2v.13c0,3.38-.57,6.48-1.72,9.29-1.15,2.82-2.88,5.24-5.2,7.28-2.32,2.04-5.2,3.62-8.64,4.74-3.44,1.13-7.46,1.69-12.06,1.69h-16.9v-45.49ZM162.61,115.36c3.51,0,6.29-.75,8.35-2.24,2.06-1.49,3.09-3.89,3.09-7.18v-.13c0-3.29-1.03-5.69-3.09-7.18-2.06-1.49-4.84-2.24-8.35-2.24h-2.53v18.98h2.53Z"/>
  </g>
  <path class="cls-2" d="M236.53,102.57c-2.99,2.53-46.18,42.34-31.98,3.17-37.88-41.13,28.56-5.04,31.98-3.17h0Z"/>
</svg>