<?xml version="1.0" encoding="utf-8"?>
<!-- Generator: Adobe Illustrator 28.2.0, SVG Export Plug-In . SVG Version: 6.00 Build 0)  -->
<svg version="1.1" id="Lager_1" xmlns="http://www.w3.org/2000/svg" xmlns:xlink="http://www.w3.org/1999/xlink" x="0px" y="0px"
	 viewBox="0 0 50 50" style="enable-background:new 0 0 50 50;" xml:space="preserve">
<style type="text/css">
	.st0{fill:#FFFFFF;}
	.st1{fill:#BA141A;}
	.st2{opacity:0.3;fill:#FFFFFF;enable-background:new    ;}
</style>
<path id="Cirkel_00000175310218639263219450000005455987431994895279_" class="st0" d="M22.4,0.1c-6.6,0.7-12.6,4-16.8,9.1
	C1.4,14.4-0.6,21,0.1,27.6c0.7,6.6,4,12.6,9.1,16.8c5,4,11.5,6.2,18.3,5.4c6.9-0.7,12.8-4.2,16.8-9.1c4-5,6.2-11.5,5.4-18.3
	c-0.7-6.9-4.3-12.9-9.3-16.9C36.3,2,30.9,0,25.1,0C24.2,0,23.3,0,22.4,0.1"/>
<path id="Bokstav" d="M31.8,40.3h-3.4l-6.2-9.5c-0.3-0.4-0.5-0.8-0.8-1.3h0c0.1,0.6,0.1,1.4,0.1,2.4v8.3h-3.2V25.2h3.7l6,9.2
	l0.8,1.2h0c-0.1-0.7-0.1-1.4-0.1-2.1v-8.4h3.2C31.8,25.2,31.8,40.3,31.8,40.3z"/>
<g>
	<path id="Pil" class="st1" d="M29.2,19.6L25,6.6v0v0l-4.2,12.9H25v0H29.2z"/>
	<path id="Skugga" class="st2" d="M29.2,19.6L25,6.6v12.9C25,19.6,29.2,19.6,29.2,19.6z"/>
</g>
</svg>
