<?xml version="1.0" encoding="UTF-8"?>
<svg id="Lager_1" data-name="Lager 1" xmlns="http://www.w3.org/2000/svg" version="1.1" viewBox="0 0 680.31 173.33">
  <defs>
    <style>
      .cls-1 {
        fill: #fff;
        stroke-width: 0px;
      }
    </style>
  </defs>
  <g>
    <path class="cls-1" d="M304.65,27.29c-1.27-.32-1.7-.53-1.7-1.27,0-.64.64-.85,1.7-.85h21.12c1.06,0,1.8.21,1.8.85,0,.74-.53.96-1.7,1.27-1.49.42-2.34,1.59-2.34,5.31v40.86c0,3.71.85,4.88,2.34,5.31,1.17.42,1.7.64,1.7,1.27,0,.74-.74.96-1.8.96h-21.12c-1.06,0-1.7-.21-1.7-.96,0-.64.43-.85,1.7-1.27,1.49-.42,2.23-1.59,2.23-5.31v-18.47h-15.28v18.47c0,3.71.74,4.88,2.34,5.31,1.17.42,1.59.64,1.59,1.27,0,.74-.64.96-1.8.96h-21.01c-1.06,0-1.8-.21-1.8-.96,0-.64.43-.85,1.7-1.27,1.49-.42,2.23-1.59,2.23-5.31v-39.06c-.21-3.71-2.23-6.05-6.9-6.05-6.69,0-12.42,4.88-12.42,12.31,0,5.09,2.86,8.07,7,8.07,2.44,0,4.25-1.17,5.41-2.55,1.17-1.59,1.91,0,1.91,2.33,0,5.09-4.14,9.34-10.72,9.34s-13.58-4.78-13.58-13.8c0-10.72,9.45-18.89,24.73-18.89h23.45c1.17,0,1.8.21,1.8.85,0,.74-.43.96-1.59,1.27-1.59.42-2.34,1.59-2.34,5.31v18.47h15.28v-18.47c0-3.71-.74-4.88-2.23-5.31Z"/>
    <path class="cls-1" d="M346.35,44.38c-1.17,3.71-2.34,5.84-6.16,5.84-4.56,0-8.17-3.82-6.37-7.96,2.44-5.52,9.87-8.38,17.62-8.38,12.84,0,21.01,5.84,21.01,17.94v19.74c0,1.91.32,3.29,1.7,3.29,1.49,0,2.44-1.8,2.97-1.8.32,0,.74.32.74,1.17,0,1.91-3.29,6.9-10.72,6.9-5.41,0-8.7-2.23-10.29-7.43-2.87,4.67-7.43,7.85-12.52,7.85-8.49,0-14.01-6.05-14.01-13.8,0-8.81,6.58-15.07,17.51-15.07,3.5,0,6.47.64,8.6,1.59v-3.4c0-10.4-1.7-13.37-4.88-13.37-2.34,0-4.14,3.71-5.2,6.9ZM352.83,56.26c-3.93,0-6.37,3.72-6.37,8.7s2.34,7.96,4.88,7.96,4.78-2.97,4.99-8.38v-.96c0-1.59.11-2.44.11-2.65v-2.76c-.85-1.06-1.91-1.91-3.61-1.91Z"/>
    <path class="cls-1" d="M379.68,28.67c-.96-.32-1.49-.21-1.49-.96,0-.64.74-1.17,1.49-1.49l9.13-3.5c4.46-1.7,6.69-2.65,7.96-2.65,1.06,0,1.17,1.17,1.17,1.8v51.58c0,3.71.74,4.88,2.23,5.31,1.27.32,1.7.53,1.7,1.27s-.64.96-1.8.96h-20.38c-1.17,0-1.8-.21-1.8-.96s.53-.96,1.7-1.27c1.49-.42,2.23-1.59,2.23-5.31V31c0-1.27-.85-2.02-2.12-2.33Z"/>
    <path class="cls-1" d="M454.5,42.47c-2.87,0-4.78,1.91-4.99,4.67v26.32c0,3.71.74,4.88,2.23,5.31,1.27.32,1.7.53,1.7,1.27s-.64.96-1.8.96h-20.38c-1.17,0-1.8-.21-1.8-.96s.42-.96,1.7-1.27c1.49-.42,2.23-1.59,2.23-5.31v-25.9c0-2.97-1.91-5.09-4.88-5.09s-4.99,2.12-4.99,5.09v25.9c0,3.71.74,4.88,2.23,5.31,1.27.32,1.7.53,1.7,1.27s-.64.96-1.8.96h-20.38c-1.17,0-1.8-.21-1.8-.96s.53-.96,1.7-1.27c1.49-.42,2.23-1.59,2.23-5.31v-25.47c0-1.49-.21-2.87-2.12-4.24-1.06-.74-1.7-1.27-1.7-2.12,0-.74.64-1.17,1.7-1.59,1.8-.64,4.88-1.8,9.13-3.5,4.46-1.7,6.69-2.65,7.96-2.65,1.06,0,1.17,1.17,1.17,1.8v7.11c1.91-4.67,6.47-8.92,12.63-8.92,7.85,0,11.89,4.35,13.05,9.66,1.7-4.88,6.47-9.66,12.95-9.66,9.34,0,13.37,6.05,13.37,12.84v26.74c0,3.71.74,4.88,2.23,5.31,1.27.32,1.7.53,1.7,1.27s-.64.96-1.8.96h-20.38c-1.17,0-1.8-.21-1.8-.96s.43-.96,1.7-1.27c1.49-.42,2.23-1.59,2.23-5.31v-25.9c0-2.97-1.91-5.09-4.88-5.09Z"/>
    <path class="cls-1" d="M481.35,71.86c-.64-4.99,3.08-7.85,7.85-7.85,3.5,0,4.88,2.12,6.05,7.32,1.17,5.41,3.29,6.58,6.37,6.58,3.29,0,5.73-2.02,5.73-5.31,0-3.72-1.8-6.37-10.29-10.19-8.92-4.24-13.9-8.17-13.9-15.28,0-8.07,8.92-13.27,19.42-13.27,8.92,0,16.13,3.61,16.87,8.7.64,4.78-2.76,6.79-6.69,6.79-2.97,0-5.41-1.7-6.26-6.05-.74-3.4-2.34-5.84-5.52-5.84s-4.99,2.02-4.99,4.46c0,3.82,2.97,6.16,10.08,9.55,12.52,5.84,15.49,9.66,15.49,15.81,0,6.9-5.73,14.22-20.59,14.22-10.29,0-18.89-3.18-19.63-9.66Z"/>
    <path class="cls-1" d="M522.84,36.84v-1.27c0-.74.32-1.27,1.17-1.27,2.23,0,5.09-.74,8.81-2.97,4.99-2.97,6.58-8.07,8.28-8.07h.21c.74,0,1.27.42,1.27,2.55v8.6l6.26-.11c1.06,0,1.38.43,1.38,1.06v1.49c0,.64-.43,1.06-1.38,1.06h-6.47v29.72c0,3.61,1.49,5.2,3.72,5.2,1.38,0,2.55-.11,3.61-.42.85-.21,1.8.64.95,1.8-3.18,4.03-6.05,7-12.42,7-8.81,0-11.99-6.58-11.99-12.74v-30.56h-2.02c-1.06,0-1.38-.42-1.38-1.06Z"/>
    <path class="cls-1" d="M569.22,44.38c-1.17,3.71-2.34,5.84-6.16,5.84-4.56,0-8.17-3.82-6.37-7.96,2.44-5.52,9.87-8.38,17.62-8.38,12.84,0,21.01,5.84,21.01,17.94v19.74c0,1.91.32,3.29,1.7,3.29,1.49,0,2.44-1.8,2.97-1.8.32,0,.74.32.74,1.17,0,1.91-3.29,6.9-10.72,6.9-5.41,0-8.7-2.23-10.29-7.43-2.87,4.67-7.43,7.85-12.52,7.85-8.49,0-14.01-6.05-14.01-13.8,0-8.81,6.58-15.07,17.51-15.07,3.5,0,6.47.64,8.6,1.59v-3.4c0-10.4-1.7-13.37-4.88-13.37-2.34,0-4.14,3.71-5.2,6.9ZM575.69,56.26c-3.93,0-6.37,3.72-6.37,8.7s2.34,7.96,4.88,7.96,4.78-2.97,4.99-8.38v-.96c0-1.59.11-2.44.11-2.65v-2.76c-.85-1.06-1.91-1.91-3.61-1.91Z"/>
    <path class="cls-1" d="M628.86,76.96c-2.76,2.65-7,4.56-11.99,4.56-9.66,0-16.66-8.81-16.66-22.29,0-15.18,9.45-25.26,23.24-25.26,2.02,0,3.72.32,5.41.85v-3.82c0-1.27-.85-2.02-2.12-2.33-.96-.32-1.49-.21-1.49-.96,0-.64.64-1.17,1.49-1.49l9.13-3.5c4.46-1.7,6.69-2.65,7.96-2.65,1.06,0,1.17,1.17,1.17,1.8,0,0-.11,49.35-.11,49.56,0,3.71.11,4.88,1.59,5.31.96.32,1.49.42,1.49,1.06-.11.64-.96.96-1.8,1.17l-8.28,2.12c-4.67,1.06-6.58,1.59-7.85,1.49-1.06-.21-1.17-.64-1.17-1.8v-3.82ZM628.86,74.52v-36.61c-1.06-.32-2.23-.42-3.4-.42-5.2,0-9.02,5.94-9.02,19s5.09,18.47,10.4,18.47c.64,0,1.38-.21,2.02-.42Z"/>
    <path class="cls-1" d="M330.81,149.78c-14.12,0-27.7-5.2-27.7-15.18,0-3.29,2.44-7.22,7.54-7.22,3.5,0,7.75,2.23,7.96,6.79.21,6.05,6.79,12.1,13.05,12.1s9.55-3.29,9.55-6.9-4.56-7.54-15.17-11.67c-13.05-5.2-20.27-10.08-20.27-18.36,0-9.34,10.4-16.66,24.2-16.66s23.77,4.88,23.77,13.8c0,3.18-2.23,6.69-7.11,6.69-3.5,0-7.11-2.23-8.06-6.9-1.27-6.69-4.78-10.19-10.29-10.19s-9.66,2.76-9.66,6.37c0,4.25,3.29,7,16.13,12.31,18.47,7.75,22.39,12.95,22.39,19.42,0,9.76-9.02,15.6-26.32,15.6Z"/>
    <path class="cls-1" d="M358.72,104.99v-1.27c0-.74.32-1.27,1.17-1.27,2.23,0,5.09-.74,8.81-2.97,4.99-2.97,6.58-8.07,8.28-8.07h.21c.74,0,1.27.42,1.27,2.55v8.6l6.26-.11c1.06,0,1.38.43,1.38,1.06v1.49c0,.64-.43,1.06-1.38,1.06h-6.47v29.72c0,3.61,1.49,5.2,3.72,5.2,1.38,0,2.55-.11,3.61-.43.85-.21,1.8.64.95,1.8-3.18,4.03-6.05,7-12.42,7-8.81,0-11.99-6.58-11.99-12.73v-30.56h-2.02c-1.06,0-1.38-.42-1.38-1.06Z"/>
    <path class="cls-1" d="M435.24,125.79c0,13.48-10.08,23.88-24.09,23.88s-24.2-10.4-24.2-23.88,9.98-23.77,24.2-23.77,24.09,10.4,24.09,23.77ZM418.04,124.73c-2.12-12.84-6.37-19.53-10.08-19.1-4.03.42-5.84,8.28-3.82,21.33,2.12,12.95,6.37,19.53,10.19,19.1,3.93-.42,5.73-8.17,3.71-21.33Z"/>
    <path class="cls-1" d="M438.63,111.89c-1.06-.74-1.7-1.27-1.7-2.12,0-.74.64-1.17,1.7-1.59,1.8-.64,4.88-1.8,9.13-3.5,4.46-1.7,6.69-2.65,7.96-2.65,1.06,0,1.17,1.17,1.17,1.8v9.13c4.24-7.22,9.23-11.36,14.54-11.36,4.99,0,8.49,4.35,8.49,9.55,0,6.05-4.14,9.02-6.9,9.02-1.7,0-3.4-.85-5.31-4.35-1.27-2.44-2.44-3.93-4.46-3.93s-3.5,1.49-6.37,5.62v24.09c0,3.72.74,4.88,2.23,5.31,1.27.32,1.7.53,1.7,1.27s-.64.96-1.8.96h-20.38c-1.17,0-1.8-.21-1.8-.96s.53-.95,1.7-1.27c1.49-.42,2.23-1.59,2.23-5.31v-25.47c0-1.49-.21-2.87-2.12-4.24Z"/>
    <path class="cls-1" d="M482.99,113.59c-1.06-.74-1.7-1.27-1.7-2.12,0-.74.64-1.17,1.7-1.59,1.8-.64,4.88-1.8,9.13-3.5,4.46-1.7,6.69-2.65,7.96-2.65,1.06,0,1.17,1.17,1.17,1.8v36.08c0,3.72.74,4.88,2.23,5.31,1.27.32,1.7.53,1.7,1.27s-.64.96-1.8.96h-20.38c-1.17,0-1.8-.21-1.8-.96s.53-.95,1.7-1.27c1.49-.42,2.23-1.59,2.23-5.31v-23.77c0-1.49-.21-2.87-2.12-4.24ZM482.78,93.85c0-4.88,4.77-8.38,9.97-8.38s10.19,3.5,10.19,8.38-4.78,8.28-10.19,8.28-9.97-3.5-9.97-8.28Z"/>
    <path class="cls-1" d="M550.38,121.23c0,2.23-2.02,3.18-4.56,3.18h-22.5c1.59,11.99,8.6,16.56,15.07,16.56,3.82,0,6.37-1.17,8.81-3.18.74-.53,2.12.21,1.7,1.59-1.49,4.56-8.28,10.29-18.68,10.29-12.95,0-23.45-9.55-23.45-23.35s10.08-24.2,23.56-24.2c11.99,0,20.06,8.81,20.06,19.1ZM523,120.8h6.79c3.93,0,5.2-2.65,5.2-6.05,0-4.67-2.76-9.02-5.63-9.02-3.18,0-6.37,5.41-6.37,13.37v1.7Z"/>
    <path class="cls-1" d="M552.51,140.01c-.64-4.99,3.08-7.85,7.85-7.85,3.5,0,4.88,2.12,6.05,7.32,1.17,5.41,3.29,6.58,6.37,6.58,3.29,0,5.73-2.02,5.73-5.31,0-3.72-1.8-6.37-10.29-10.19-8.92-4.24-13.9-8.17-13.9-15.28,0-8.07,8.92-13.27,19.42-13.27,8.92,0,16.13,3.61,16.87,8.7.64,4.78-2.76,6.79-6.69,6.79-2.97,0-5.41-1.7-6.26-6.05-.74-3.4-2.34-5.84-5.52-5.84s-4.99,2.02-4.99,4.46c0,3.82,2.97,6.16,10.08,9.55,12.52,5.84,15.49,9.66,15.49,15.81,0,6.9-5.73,14.22-20.59,14.22-10.29,0-18.89-3.18-19.63-9.66Z"/>
  </g>
  <g>
    <path class="cls-1" d="M118.45,121.16c-26.25,72.42,53.61-1.18,59.13-5.86-6.33-3.46-129.17-70.19-59.13,5.86Z"/>
    <path class="cls-1" d="M231.69,91.46v-.03c0-5.92-4.84-10.76-10.76-10.76h-1.63c-8.13-37.9-41.88-66.4-82.17-66.4S63.09,42.77,54.96,80.67h-1.63c-5.92,0-10.76,4.84-10.76,10.76v.03c-5.67.29-10.22,5-10.22,10.73v26.34c0,5.74,4.55,10.45,10.22,10.73v.03c0,5.92,4.84,10.76,10.76,10.76h7.8c5.92,0,10.76-4.84,10.76-10.76v-47.86c0-4.54-2.85-8.43-6.85-10.01,1.94-8.28,5.27-16.02,9.73-22.98,4.93,1.59,10.49.41,14.46-3.32,12.88-12.13,29.79-18.9,47.89-18.9s35.01,6.77,47.89,18.9c3.97,3.73,9.53,4.91,14.46,3.32,4.46,6.96,7.79,14.7,9.73,22.98-4,1.58-6.85,5.47-6.85,10.01v47.86c0,5.92,4.84,10.76,10.76,10.76h7.8c5.92,0,10.76-4.84,10.76-10.76v-.03c5.67-.29,10.22-5,10.22-10.73v-26.34c0-5.74-4.55-10.45-10.22-10.73Z"/>
  </g>
</svg>