<?xml version="1.0" encoding="utf-8"?>
<!-- Generator: Adobe Illustrator 28.2.0, SVG Export Plug-In . SVG Version: 6.00 Build 0)  -->
<svg version="1.1" id="Lager_1" xmlns="http://www.w3.org/2000/svg" xmlns:xlink="http://www.w3.org/1999/xlink" x="0px" y="0px"
	 viewBox="0 0 50 50" style="enable-background:new 0 0 50 50;" xml:space="preserve">
<style type="text/css">
	.st0{fill:#FFFFFF;}
	.st1{fill:#BA141A;}
	.st2{fill:#3E3E3E;}
	.st3{opacity:0.3;fill:#FFFFFF;enable-background:new    ;}
</style>
<path id="Cirkel_00000175310218639263219450000005455987431994895279_" class="st0" d="M22.4,0.1c-6.6,0.7-12.6,4-16.8,9.1
	C1.4,14.4-0.6,21,0.1,27.6c0.7,6.6,4,12.6,9.1,16.8c5,4,11.5,6.2,18.3,5.4c6.9-0.7,12.8-4.2,16.8-9.1c4-5,6.2-11.5,5.4-18.3
	c-0.7-6.9-4.3-12.9-9.3-16.9C36.3,2,30.9,0,25.1,0C24.2,0,23.3,0,22.4,0.1"/>
<path class="st1" d="M29.7,27.1L25,12.8v0v0l-4.7,14.3H25v0H29.7z"/>
<path class="st2" d="M25,27.1h-4.7L25,41.4l4.7-14.3L25,27.1z"/>
<path d="M27.8,12.4h-1.4l-2.6-4c-0.1-0.2-0.2-0.3-0.3-0.5h0c0,0.2,0,0.6,0,1v3.5h-1.3V6.1h1.5l2.5,3.8l0.3,0.5h0c0-0.3,0-0.6,0-0.9
	V6.1h1.3C27.8,6.1,27.8,12.4,27.8,12.4z"/>
<path class="st3" d="M29.7,27.1L25,12.8v28.6C25,41.4,29.7,27.1,29.7,27.1z"/>
</svg>
